<svg version="1" xmlns="http://www.w3.org/2000/svg" width="300" height="300" viewBox="0 0 225 225"><path d="M82.5 52.6c-37.4 7-63.6 26.7-67.8 50.7-1.4 8.2.7 18.9 5.5 28.6 3.7 7.8 15.5 20 24 24.9 29.2 17.1 73.9 22.7 109.6 13.7 18.5-4.7 38.6-16.7 47.4-28.2 8.2-10.8 10.9-20.9 8.8-33.2-4.6-27.3-31.5-48.3-71.5-55.6-12.9-2.4-45.4-2.9-56-.9zM119 65.8c14.6 4.8 24.8 19.2 31.1 43.7 5.5 22 3.7 32.9-7.5 44.1-8.3 8.3-14.8 10.7-26.6 10.2-14.7-.7-24.9-7.5-32.3-21.5-6.3-12.1-12.5-38.9-11.2-48.4 1.4-10.1 9.4-22.2 17.7-26.5 8-4.3 19.1-4.9 28.8-1.6z"/></svg>