<svg version="1" xmlns="http://www.w3.org/2000/svg" width="318.667" height="1009.333" viewBox="0 0 239 757"><path d="M155 98v97.9l-7.2 2.2c-4 1.2-21.8 6.3-39.5 11.4L76 218.7V34H54v191.8l-3.3 1.1c-3.2 1-38.4 10.9-46.4 13L0 241.1v39.5c0 37.2.1 39.5 1.8 39 .9-.3 12.3-3.5 25.2-7.1 12.9-3.6 24.3-6.8 25.3-7.1 1.6-.5 1.7 4.3 1.7 91.9v92.5L31.8 496c-12.3 3.4-24.3 6.7-26.8 7.4l-4.5 1.3-.3 39.2-.2 39.3 2.7-.7c1.6-.3 13.6-3.6 26.8-7.3l24-6.8.3 94.3.2 94.3h22v-98c0-53.9.2-98 .5-98s17.6-4.7 38.6-10.5 38.5-10.5 39-10.5.9 38.3.9 92v92.1l11.8-.3 11.7-.3.3-95.7c.2-90 .3-95.7 2-96.2.9-.3 11.6-3.2 23.7-6.6 12.1-3.3 23.5-6.6 25.3-7.1l3.2-1.1v-78.5l-27 7.7-27 7.7V268.5l27-7.5 27-7.5v-39.3c0-21.5-.3-39.2-.7-39.2-.5.1-12.5 3.4-26.8 7.4l-26 7.3-.3-94.8L179 0h-24v98zm0 270.5v92.4l-3.2.9c-1.8.5-19.1 5.5-38.5 11.1C94 478.4 77.7 483 77.1 483c-.8 0-1.1-27.6-1.1-92.8v-92.8l38.3-10.6c21-5.9 38.8-10.7 39.5-10.7.9-.1 1.2 19 1.2 92.4z"/></svg>