<svg version="1" xmlns="http://www.w3.org/2000/svg" width="318.667" height="690.667" viewBox="0 0 239 518"><path d="M0 253.7c0 246.9.1 253.9 1.9 258 4.1 8.8 10.6 8.6 27.1-1.2 24.5-14.5 69.2-42.8 80.2-50.7 50.6-36.2 79.5-75 89-119.1 3.1-14.6 3.1-39.4 0-51.9-3.7-15.2-10.4-26.2-20.6-33.8-6.9-5.2-19.7-11.4-28.7-14-9.2-2.7-28.4-3.7-38.6-2.1-24.9 3.9-55.7 20.5-79.3 42.8-3.7 3.4-7 6.3-7.4 6.3-.3 0-.6-64.8-.6-144V0H0v253.7zm100.5 36.9c13.8 4.1 24.6 19.3 27.1 38.2.8 6.2-1.1 21.2-3.7 29.9-9.4 30.8-46.6 75.9-91 110.6-4.8 3.7-9 6.7-9.3 6.7-.3 0-.6-30.4-.6-67.5v-67.6l3.1-6.2c12.6-25.1 34.4-43.1 55.4-45.6 7.2-.9 12.3-.4 19 1.5z"/></svg>